<?xml version="1.0" encoding="utf-8"?>
<!-- Generator: Adobe Illustrator 23.0.3, SVG Export Plug-In . SVG Version: 6.00 Build 0)  -->
<svg version="1.0" id="Layer_5" xmlns="http://www.w3.org/2000/svg" xmlns:xlink="http://www.w3.org/1999/xlink" x="0px" y="0px"
	 width="512px" height="512px" viewBox="0 0 512 512" style="enable-background:new 0 0 512 512;" xml:space="preserve">
<path style="fill:#7E342D;" d="M508.81,384L408,303.35V352h-72.1c13.08-17.41,22.54-37.26,27.64-58.45l28.46-7.36v-60.42
	l-28.42-7.19c-3.9-16.22-10.32-31.67-19.16-46.06l15.06-25.26l-42.75-42.74l-25.26,15.05c-14.38-8.83-29.83-15.26-46.06-19.16
	L238.22,72h-60.46l-7.19,28.42c-16.22,3.9-31.67,10.32-46.06,19.16l-25.26-15.05l-42.75,42.74l15.06,25.26
	c-8.83,14.38-15.26,29.84-19.16,46.06L24,225.78v60.44l28.43,7.26c5.2,21.66,14.85,41.44,27.75,58.53H8v64h200h200v48.65L508.81,384
	z M24,400v-32h70.1c12.94,13.1,28.03,23.95,44.68,32H24z M208,400c-67.96,0-127.26-48.23-141-114.68l-1.02-4.9L40,273.78v-35.56
	l25.97-6.57l1.02-4.91c3.65-17.66,10.6-34.38,20.66-49.7l2.75-4.18l-13.76-23.09l25.14-25.14l23.09,13.77l4.18-2.75
	c15.31-10.06,32.03-17.02,49.7-20.66l4.91-1.02L190.22,88h35.54l6.57,25.97l4.91,1.02c17.66,3.65,34.38,10.6,49.7,20.66l4.18,2.75
	l23.09-13.77l25.14,25.14l-13.76,23.09l2.75,4.18c10.06,15.31,17.02,32.03,20.66,49.7l1.02,4.91l25.98,6.58v35.58l-26.01,6.73
	l-1.01,4.87c-5.14,24.77-16.82,47.69-33.76,66.59H265.4C298.04,332.41,320,296.77,320,256c0-61.76-50.24-112-112-112
	S96,194.24,96,256s50.24,112,112,112h216v-31.35L483.19,384L424,431.35V400L208,400z M208,352c-52.94,0-96-43.06-96-96
	s43.06-96,96-96s96,43.06,96,96S260.94,352,208,352z"/>
<path style="fill:#7E342D;" d="M148.57,232.18l-14.86-5.94c-2.2,5.5-3.78,11.26-4.72,17.1l15.81,2.51
	C145.54,241.19,146.81,236.59,148.57,232.18L148.57,232.18z"/>
<path style="fill:#7E342D;" d="M144.13,260.06l-15.97,0.98c0.37,5.93,1.39,11.81,3.06,17.49l15.35-4.5
	C145.25,269.5,144.42,264.79,144.13,260.06z"/>
<path style="fill:#7E342D;" d="M138.08,294.9c2.89,5.18,6.35,10.03,10.3,14.44l11.92-10.67c-3.16-3.53-5.94-7.42-8.24-11.56
	L138.08,294.9z"/>
<path style="fill:#7E342D;" d="M232,256c0-10.42-6.71-19.22-16-22.53V176h-16v57.47c-9.29,3.31-16,12.11-16,22.53
	c0,13.23,10.77,24,24,24c3.7,0,7.15-0.9,10.28-2.41l24.06,24.06l11.31-11.31l-24.06-24.06C231.1,263.15,232,259.7,232,256z M208,264
	c-4.41,0-8-3.59-8-8s3.59-8,8-8s8,3.59,8,8C216,260.41,212.41,264,208,264z"/>
</svg>
