<?xml version="1.0" encoding="utf-8"?>
<!-- Generator: Adobe Illustrator 23.0.3, SVG Export Plug-In . SVG Version: 6.00 Build 0)  -->
<svg version="1.0" id="Capa_1" xmlns="http://www.w3.org/2000/svg" xmlns:xlink="http://www.w3.org/1999/xlink" x="0px" y="0px"
	 width="90.68px" height="90.68px" viewBox="0 0 90.68 90.68" style="enable-background:new 0 0 90.68 90.68;" xml:space="preserve"
	>
<g>
	<g>
		<path style="fill:#CFA482;" d="M82.29,45.91c-0.94-4.07-4.27-7.07-8.28-7.52c-9.49-1.06-19.1-1.06-28.66-1.06
			c-9.57-0.01-19.17,0-28.67,1.06c-4.01,0.45-7.33,3.45-8.27,7.52C7.08,51.7,7.07,58.03,7.07,64s0,12.3,1.33,18.09
			c0.94,4.07,4.26,7.07,8.27,7.52c9.49,1.06,19.1,1.07,28.66,1.06c9.57,0,19.17,0,28.66-1.06c4.01-0.45,7.34-3.45,8.27-7.52
			c1.33-5.8,1.34-12.12,1.34-18.09C83.61,58.03,83.62,51.7,82.29,45.91z M28.9,50.4h-5.54v29.44h-5.15V50.4h-5.44v-4.82H28.9V50.4z
			 M42.88,79.84h-4.63v-2.79c-1.84,2.11-3.58,3.14-5.29,3.14c-1.49,0-2.52-0.6-2.98-1.9c-0.25-0.77-0.41-1.99-0.41-3.8V54.31h4.63
			v18.8c0,1.08,0,1.65,0.04,1.8c0.11,0.72,0.46,1.08,1.08,1.08c0.93,0,1.9-0.71,2.92-2.17V54.31h4.63L42.88,79.84L42.88,79.84z
			 M60.45,72.18c0,2.36-0.16,4.06-0.47,5.14c-0.62,1.9-1.85,2.87-3.69,2.87c-1.65,0-3.23-0.91-4.78-2.82v2.47h-4.63V45.58h4.63
			v11.19C53,54.93,54.59,54,56.29,54c1.84,0,3.08,0.97,3.69,2.88c0.31,1.03,0.47,2.72,0.47,5.13V72.18z M77.91,67.92h-9.25v4.53
			c0,2.36,0.77,3.54,2.36,3.54c1.14,0,1.8-0.62,2.07-1.86c0.04-0.25,0.1-1.28,0.1-3.13h4.72v0.68c0,1.49-0.06,2.52-0.1,2.98
			c-0.15,1.02-0.52,1.95-1.08,2.77c-1.28,1.85-3.18,2.77-5.6,2.77c-2.42,0-4.26-0.87-5.6-2.61c-0.98-1.28-1.49-3.29-1.49-6v-8.94
			c0-2.73,0.45-4.72,1.43-6.01c1.34-1.75,3.18-2.62,5.54-2.62c2.32,0,4.16,0.87,5.46,2.62c0.97,1.29,1.43,3.29,1.43,6.01
			L77.91,67.92L77.91,67.92z"/>
		<path style="fill:#CFA482;" d="M70.98,58.16c-1.55,0-2.32,1.18-2.32,3.54v2.36h4.63V61.7C73.28,59.34,72.51,58.16,70.98,58.16z"/>
		<path style="fill:#CFA482;" d="M53.81,58.16c-0.76,0-1.53,0.36-2.31,1.13v15.56c0.77,0.77,1.54,1.14,2.31,1.14
			c1.33,0,2.01-1.14,2.01-3.44v-10.9C55.82,59.34,55.15,58.16,53.81,58.16z"/>
		<path style="fill:#CFA482;" d="M56.4,34.97c1.71,0,3.48-1.04,5.34-3.17v2.81h4.68V8.82h-4.67v19.72
			c-1.04,1.46-2.02,2.19-2.95,2.19c-0.63,0-0.99-0.37-1.1-1.09c-0.06-0.15-0.06-0.72-0.06-1.82V8.82h-4.66v20.4
			c0,1.82,0.16,3.05,0.41,3.84C53.85,34.36,54.89,34.97,56.4,34.97z"/>
		<path style="fill:#CFA482;" d="M23.85,20.6v14.02h5.18V20.6L35.27,0h-5.24l-3.54,13.6L22.81,0h-5.45
			c1.09,3.21,2.23,6.43,3.32,9.65C22.34,14.47,23.38,18.11,23.85,20.6z"/>
		<path style="fill:#CFA482;" d="M42.22,34.97c2.34,0,4.16-0.88,5.45-2.64c0.98-1.29,1.45-3.33,1.45-6.07v-9.03
			c0-2.76-0.47-4.77-1.45-6.08c-1.29-1.77-3.11-2.65-5.45-2.65c-2.33,0-4.15,0.88-5.44,2.65c-0.99,1.3-1.46,3.32-1.46,6.08v9.03
			c0,2.74,0.47,4.78,1.46,6.07C38.07,34.09,39.89,34.97,42.22,34.97z M39.99,16.29c0-2.39,0.72-3.58,2.23-3.58s2.23,1.19,2.23,3.58
			v10.85c0,2.39-0.72,3.58-2.23,3.58s-2.23-1.19-2.23-3.58V16.29z"/>
	</g>
</g>
</svg>
