<?xml version="1.0" encoding="utf-8"?>
<!-- Generator: Adobe Illustrator 23.0.3, SVG Export Plug-In . SVG Version: 6.00 Build 0)  -->
<svg version="1.0" id="Layer_1" xmlns="http://www.w3.org/2000/svg" xmlns:xlink="http://www.w3.org/1999/xlink" x="0px" y="0px"
	 width="512px" height="512px" viewBox="0 0 512 512" style="enable-background:new 0 0 512 512;" xml:space="preserve">
<g>
	<g>
		<path style="fill:#7E342D;" d="M488.73,0H302.55c-12.85,0-23.27,10.42-23.27,23.27s10.42,23.27,23.27,23.27h130L193,286.09
			c-9.09,9.09-9.09,23.82,0,32.91c4.54,4.54,10.5,6.82,16.46,6.82c5.96,0,11.91-2.27,16.46-6.82L465.45,79.46v130
			c0,12.85,10.42,23.27,23.27,23.27S512,222.31,512,209.45V23.27C512,10.42,501.58,0,488.73,0z"/>
	</g>
</g>
<g>
	<g>
		<path style="fill:#7E342D;" d="M395.64,232.73c-12.85,0-23.27,10.42-23.27,23.27v209.46H46.54V139.64H256
			c12.85,0,23.27-10.42,23.27-23.27S268.85,93.09,256,93.09H23.27C10.42,93.09,0,103.51,0,116.36v372.36
			C0,501.58,10.42,512,23.27,512h372.36c12.85,0,23.27-10.42,23.27-23.27V256C418.91,243.15,408.49,232.73,395.64,232.73z"/>
	</g>
</g>
</svg>
