<?xml version="1.0" encoding="utf-8"?>
<!-- Generator: Adobe Illustrator 23.0.3, SVG Export Plug-In . SVG Version: 6.00 Build 0)  -->
<svg version="1.0" id="Capa_1" xmlns="http://www.w3.org/2000/svg" xmlns:xlink="http://www.w3.org/1999/xlink" x="0px" y="0px"
	 width="409.81px" height="409.81px" viewBox="0 0 409.81 409.81" style="enable-background:new 0 0 409.81 409.81;"
	 xml:space="preserve">
<g>
	<g>
		<path d="M228.93,205.01L404.6,29.34c6.78-6.55,6.97-17.35,0.42-24.13c-6.55-6.78-17.35-6.97-24.13-0.42
			c-0.14,0.14-0.28,0.28-0.42,0.42L204.8,180.88L29.13,5.21C22.35-1.34,11.55-1.15,5,5.63c-6.39,6.61-6.39,17.1,0,23.71
			l175.67,175.67L5,380.68c-6.66,6.66-6.66,17.47,0,24.13c6.66,6.66,17.47,6.66,24.13,0L204.8,229.14l175.67,175.67
			c6.78,6.55,17.58,6.36,24.13-0.42c6.39-6.61,6.39-17.1,0-23.71L228.93,205.01z"/>
	</g>
</g>
</svg>
