<?xml version="1.0" encoding="utf-8"?>
<!-- Generator: Adobe Illustrator 23.0.3, SVG Export Plug-In . SVG Version: 6.00 Build 0)  -->
<svg version="1.0" id="Layer_3" xmlns="http://www.w3.org/2000/svg" xmlns:xlink="http://www.w3.org/1999/xlink" x="0px" y="0px"
	 width="512px" height="512px" viewBox="0 0 512 512" style="enable-background:new 0 0 512 512;" xml:space="preserve">
<path style="fill:#7E342D;" d="M428.91,361.58c7.24-14.37,11.09-30.18,11.09-46.42c0-23.94-2.78-47.9-8.26-71.21l-18.14-77.1
	c-4.27-18.17-20.28-30.85-38.94-30.85h-6.86c-7.31-9.66-18.78-16-31.79-16h-24v-11h11c13.23,0,24-10.77,24-24V25
	c0-13.23-10.77-24-24-24H187c-13.23,0-24,10.77-24,24v60c0,13.23,10.77,24,24,24h13v11h-24c-13.02,0-24.49,6.34-31.79,16h-6.86
	c-18.66,0-34.66,12.68-38.94,30.83l-18.14,77.11c-5.48,23.3-8.26,47.26-8.26,71.22c0,16.25,3.85,32.06,11.09,46.42
	C58.51,367.7,40,390.92,40,418.02v20.69c0,7.02,1.13,13.97,3.35,20.65c8.9,26.7,33.8,44.65,61.94,44.65H406.7
	c28.15,0,53.04-17.94,61.95-44.66c2.22-6.67,3.34-13.62,3.34-20.64v-20.69C472,390.92,453.49,367.7,428.91,361.58L428.91,361.58z
	 M179,85V25c0-4.42,3.58-8,8-8h136c4.42,0,8,3.58,8,8v60c0,4.42-3.58,8-8,8H187C182.58,93,179,89.42,179,85L179,85z M216,109h80v11
	h-80L216,109z M95.84,247.61l18.14-77.11c2.52-10.71,11.86-18.21,22.82-18.46c-0.52,2.58-0.8,5.24-0.8,7.96v40h16v-40
	c0-13.23,10.77-24,24-24h160c13.23,0,24,10.77,24,24v40h16v-40c0-2.72-0.28-5.38-0.81-7.95c10.96,0.25,20.3,7.74,22.82,18.46
	l18.14,77.11c5.2,22.1,7.84,44.83,7.84,67.54c0,15.97-4.38,31.46-12.61,45.06c-12.89,1.06-24.96,6.42-34.39,15.58
	c-9.4,9.12-15.14,20.91-16.61,33.71c-8.15-4.74-16.78-8.59-25.76-11.44c-4.32-28.65-6.62-57.77-6.62-86.74V152h-16v159.34
	c0,27.58,2.05,55.29,5.87,82.62C310.66,392.7,303.34,392,296,392h-80c-7.34,0-14.66,0.7-21.87,1.96
	c3.82-27.34,5.87-55.04,5.87-82.62V152h-16v159.34c0,28.98-2.3,58.1-6.64,86.74c-8.98,2.85-17.61,6.7-25.76,11.44
	c-1.46-12.8-7.21-24.6-16.61-33.71c-9.44-9.15-21.37-14.45-34.37-15.55C92.38,346.63,88,331.14,88,315.16
	C88,292.45,90.64,269.72,95.84,247.61L95.84,247.61z M456,438.7c0,5.3-0.85,10.55-2.52,15.58C446.75,474.46,427.95,488,406.7,488
	H105.3c-21.25,0-40.05-13.54-46.77-33.7C56.85,449.26,56,444.01,56,438.7v-20.69c0-22.51,17.39-41.35,38.77-41.99
	c10.9-0.36,21.26,3.67,29.09,11.26c7.83,7.6,12.14,17.8,12.14,28.71v16c0,22.06,17.94,40,40,40h16v-16h-16c-13.23,0-24-10.77-24-24
	v-3.81c18.69-13,41.22-20.19,64-20.19h80c22.78,0,45.31,7.19,64,20.19V432c0,13.23-10.77,24-24,24h-16v16h16c22.06,0,40-17.94,40-40
	v-16c0-10.91,4.31-21.11,12.15-28.71c7.83-7.59,18.23-11.61,29.09-11.26c21.37,0.64,38.76,19.48,38.76,41.99L456,438.7z"/>
<path style="fill:#7E342D;" d="M496,48c-17.65,0-32-14.35-32-32c0-4.42-3.58-8-8-8s-8,3.58-8,8c0,17.65-14.35,32-32,32
	c-4.42,0-8,3.58-8,8s3.58,8,8,8c17.65,0,32,14.35,32,32c0,4.42,3.58,8,8,8s8-3.58,8-8c0-17.65,14.35-32,32-32c4.42,0,8-3.58,8-8
	S500.42,48,496,48z M456,69.5c-3.55-5.34-8.15-9.94-13.5-13.5c5.34-3.55,9.94-8.15,13.5-13.5c3.55,5.34,8.15,9.94,13.5,13.5
	C464.15,59.55,459.55,64.15,456,69.5z"/>
<path style="fill:#7E342D;" d="M56,176c4.42,0,8-3.58,8-8c0-17.65,14.35-32,32-32c4.42,0,8-3.58,8-8s-3.58-8-8-8
	c-17.65,0-32-14.35-32-32c0-4.42-3.58-8-8-8s-8,3.58-8,8c0,17.65-14.35,32-32,32c-4.42,0-8,3.58-8,8c0,4.42,3.58,8,8,8
	c17.65,0,32,14.35,32,32C48,172.42,51.58,176,56,176z M56,114.5c3.55,5.34,8.15,9.94,13.5,13.5c-5.34,3.55-9.94,8.15-13.5,13.5
	c-3.55-5.34-8.15-9.94-13.5-13.5C47.85,124.45,52.45,119.85,56,114.5z"/>
</svg>
