<?xml version="1.0" encoding="utf-8"?>
<!-- Generator: Adobe Illustrator 23.0.3, SVG Export Plug-In . SVG Version: 6.00 Build 0)  -->
<svg version="1.0" id="Layer_1" xmlns="http://www.w3.org/2000/svg" xmlns:xlink="http://www.w3.org/1999/xlink" x="0px" y="0px"
	 width="496px" height="496px" viewBox="0 0 496 496" style="enable-background:new 0 0 496 496;" xml:space="preserve">
<path d="M136.1,296c-35.29,0-64,28.71-64,64s28.71,64,64,64s64-28.71,64-64S171.39,296,136.1,296z M136.1,408
	c-26.47,0-48-21.53-48-48s21.53-48,48-48s48,21.53,48,48S162.57,408,136.1,408z"/>
<path d="M432.41,0c-22.79,0-43.98,12.3-55.29,32.09L368.03,48H100.79L0.1,148.69V496h400V155.5l63.91-36.52
	c19.79-11.32,32.09-32.5,32.09-55.3C496.1,28.57,467.53,0,432.41,0z M96.1,75.31V144H27.41L96.1,75.31z M384.1,480h-368V160h96V64
	h246.79l-28.35,49.61L290.3,129.7l-12.39,24.79l-7.18-7.18C258.27,134.86,241.72,128,224.1,128s-34.17,6.86-46.63,19.31L164.79,160
	l16,16l-24,24L296.1,339.31l24-24l16,16l12.69-12.69c12.46-12.46,19.31-29.01,19.31-46.63s-6.86-34.17-19.31-46.63l-7.18-7.18
	l24.79-12.39l16.09-40.23l1.61-0.93V480z M337.48,236.69c9.43,9.43,14.63,21.98,14.63,35.31s-5.19,25.88-14.63,35.31l-1.38,1.38
	L187.41,160l1.38-1.38c9.43-9.43,21.98-14.63,35.31-14.63s25.88,5.19,35.31,14.63L337.48,236.69z M308.79,304l-12.69,12.69
	L179.41,200l12.69-12.69L308.79,304z M456.08,105.09l-86.37,49.35l-15.91,39.77l-24.13,12.07l-39.84-39.84l12.07-24.13l39.77-15.91
	l49.36-86.37C399.48,25.2,415.35,16,432.41,16c26.3,0,47.69,21.39,47.69,47.69C480.1,80.75,470.9,96.62,456.08,105.09z"/>
<path d="M400.1,64h16c0-8.82,7.18-16,16-16c3.95,0,7.73,1.45,10.66,4.07l10.67-11.92C447.56,34.89,439.99,32,432.1,32
	C414.45,32,400.1,46.35,400.1,64z"/>
<path d="M128.1,101h48v16h-48V101z"/>
<path d="M219.6,315.38c1.16-10.68-2.54-21.17-10.14-28.76c-7.6-7.59-18.09-11.31-28.74-10.13l-0.37,0.04
	c-6.39,0.59-12.69-2.05-16.77-7.13c-6.73-8.36-16.75-13.17-27.49-13.17s-20.76,4.81-27.5,13.17c-4.14,5.15-10.54,7.83-17.13,7.09
	c-10.66-1.16-21.17,2.54-28.76,10.14c-7.59,7.59-11.28,18.07-10.13,28.74l0.04,0.37c0.59,6.45-2.06,12.7-7.13,16.77
	c-8.35,6.73-13.16,16.75-13.16,27.49s4.81,20.76,13.17,27.5c5.15,4.15,7.81,10.54,7.09,17.13c-1.16,10.68,2.54,21.17,10.14,28.76
	c7.6,7.59,18.07,11.28,28.74,10.13l0.37-0.04c6.41-0.61,12.69,2.06,16.77,7.13c6.73,8.37,16.75,13.17,27.5,13.17
	c10.75,0,20.76-4.81,27.5-13.17c4.14-5.15,10.56-7.82,17.13-7.09c10.66,1.16,21.17-2.54,28.76-10.14
	c7.59-7.59,11.28-18.07,10.13-28.74l-0.04-0.37c-0.59-6.45,2.06-12.7,7.13-16.77c8.37-6.73,13.17-16.75,13.17-27.5
	s-4.81-20.76-13.17-27.5C221.54,328.36,218.89,321.96,219.6,315.38z M221.67,381.27l-5.02-6.23c-9.42,7.57-14.26,19.27-12.96,31.29
	l0.04,0.38c0.51,5.71-1.5,11.29-5.56,15.36c-4.16,4.14-9.89,6.18-15.73,5.54c-11.95-1.28-23.71,3.53-31.3,12.96
	c-7.36,9.16-22.7,9.16-30.05,0c-6.77-8.41-16.82-13.18-27.45-13.18c-1.27,0-2.55,0.07-3.84,0.21l-0.38,0.04
	c-5.75,0.54-11.3-1.5-15.36-5.56c-4.15-4.16-6.17-9.89-5.54-15.73c1.31-12.02-3.54-23.72-12.96-31.3c-4.58-3.68-7.19-9.16-7.2-15.02
	c0-5.86,2.63-11.35,7.2-15.03c9.42-7.57,14.26-19.27,12.96-31.29l-0.04-0.38c-0.51-5.71,1.5-11.29,5.56-15.36
	c4.15-4.15,9.85-6.19,15.73-5.54c11.97,1.31,23.71-3.53,31.3-12.96c7.36-9.16,22.7-9.16,30.05,0c7.58,9.41,19.25,14.31,31.29,12.96
	l0.38-0.04c5.76-0.52,11.3,1.5,15.36,5.56c4.15,4.16,6.17,9.89,5.54,15.73c-1.31,12.02,3.54,23.72,12.96,31.3
	c4.58,3.68,7.2,9.16,7.2,15.02s-2.63,11.34-7.2,15.02L221.67,381.27z"/>
<path d="M64.1,208h80v16h-80V208z"/>
<path d="M32.1,208h16v16h-16V208z"/>
<path d="M256.1,448h112v16h-112V448z"/>
<path d="M352.1,416h16v16h-16V416z"/>
<path d="M256.1,416h80v16h-80V416z"/>
<path d="M256.1,384h112v16h-112V384z"/>
</svg>
