<?xml version="1.0" encoding="utf-8"?>
<!-- Generator: Adobe Illustrator 23.0.3, SVG Export Plug-In . SVG Version: 6.00 Build 0)  -->
<svg version="1.0" id="Layer_1" xmlns="http://www.w3.org/2000/svg" xmlns:xlink="http://www.w3.org/1999/xlink" x="0px" y="0px"
	 width="169.06px" height="169.06px" viewBox="0 0 169.06 169.06" style="enable-background:new 0 0 169.06 169.06;"
	 xml:space="preserve">
<g>
	<path style="fill:#CFA482;" d="M122.41,0H46.65C20.93,0,0,20.93,0,46.65v75.76c0,25.72,20.93,46.65,46.65,46.65h75.76
		c25.72,0,46.65-20.93,46.65-46.65V46.65C169.06,20.93,148.13,0,122.41,0z M84.53,128.09c-24.02,0-43.56-19.54-43.56-43.56
		c0-24.02,19.54-43.56,43.56-43.56c24.02,0,43.56,19.54,43.56,43.56C128.09,108.55,108.55,128.09,84.53,128.09z M141.7,43.03
		c-2.05,2.04-4.88,3.22-7.78,3.22c-2.89,0-5.73-1.18-7.77-3.22c-2.05-2.05-3.23-4.89-3.23-7.78c0-2.9,1.18-5.74,3.23-7.78
		c2.04-2.05,4.88-3.22,7.77-3.22c2.9,0,5.74,1.17,7.78,3.22c2.05,2.04,3.22,4.88,3.22,7.78C144.92,38.14,143.75,40.98,141.7,43.03z"
		/>
</g>
</svg>
