<?xml version="1.0" encoding="utf-8"?>
<!-- Generator: Adobe Illustrator 23.0.3, SVG Export Plug-In . SVG Version: 6.00 Build 0)  -->
<svg version="1.0" id="Layer_1" xmlns="http://www.w3.org/2000/svg" xmlns:xlink="http://www.w3.org/1999/xlink" x="0px" y="0px"
	 width="512px" height="512px" viewBox="0 0 512 512" style="enable-background:new 0 0 512 512;" xml:space="preserve">
<g transform="translate(-1)">
	<path id="Shape" style="fill:#7E342D;" d="M305.08,160.15l-7.78-66.46h19c7.09,0.03,13.5-4.22,16.23-10.76
		c2.73-6.54,1.24-14.09-3.77-19.1L269.43,4.95c-6.87-6.77-17.91-6.74-24.75,0.05l-59.3,58.83c-5.01,5.02-6.5,12.56-3.77,19.1
		c2.73,6.54,9.14,10.79,16.23,10.76h19l-7.78,66.46C122.73,184.16,67.4,268.24,79.51,357.03S167.46,512,257.07,512
		s165.44-66.19,177.55-154.97C446.74,268.24,391.41,184.16,305.08,160.15L305.08,160.15z M226.43,76.63l-28.97-0.69
		c60.59-60.22,59.13-59.73,59.99-58.88l58.84,59.57H287.7c-2.44,0-4.75,1.04-6.37,2.86c-1.62,1.82-2.38,4.24-2.1,6.66l8.21,70.05
		c-20.08-3.69-40.66-3.69-60.74,0l8.21-70.05c0.28-2.42-0.48-4.84-2.1-6.66C231.19,77.67,228.87,76.63,226.43,76.63L226.43,76.63z
		 M257.07,494.76c-89.54,0-162.13-72.59-162.13-162.13S167.52,170.5,257.07,170.5S419.2,243.08,419.2,332.63
		C419.1,422.13,346.57,494.66,257.07,494.76z"/>
	<path style="fill:#7E342D;" d="M257.07,187.56C177,187.6,112.12,252.52,112.14,332.58s64.91,144.96,144.98,144.98
		s144.98-64.87,145.02-144.93C401.92,252.6,337.1,187.78,257.07,187.56L257.07,187.56z M294.26,411.99
		c-24.65,3.81-49.74,3.81-74.39,0c-18.24-34.24-59.62-76.01-90.45-85.56c0.36-7.76,1.43-15.47,3.19-23.04
		c12.34-1.43,26.16-5.19,37.09-7.39c31.52-10,57.37-19.33,87.37-20.03c30.01,0.68,59.9,16.1,89.34,22.02
		c10.94,2.2,22.82,3.94,35.16,5.37c1.76,7.57,2.83,15.28,3.19,23.04C353.89,335.97,312.53,377.74,294.26,411.99L294.26,411.99z
		 M257.07,204.63c52.43,0.08,99.53,32.1,118.88,80.83c-9.11-1.2-17.92-2.56-26.19-4.21c-92.37-33.34-96.23-33.59-211.57,4.21
		C157.54,236.73,204.63,204.71,257.07,204.63z M129.67,344.58c33.66,14.51,87.72,75.53,84.48,108.47
		C167.35,436.32,134.42,394.05,129.67,344.58z M230.66,457.86c1.29-9.33,0.28-18.83-2.94-27.67c19.49,2.48,39.21,2.48,58.69,0
		c-3.22,8.85-4.23,18.35-2.94,27.67C266.06,461.55,248.07,461.55,230.66,457.86z M299.96,453.08
		c-3.19-32.58,50.23-93.65,84.48-108.47C379.69,394.09,346.77,436.36,299.96,453.08L299.96,453.08z"/>
	<path style="fill:#7E342D;" d="M158.67,0.83c-4.16-2.21-9.33-0.63-11.54,3.53L2.07,277.43c-1.5,2.7-1.42,6,0.2,8.62
		s4.53,4.17,7.62,4.05s5.86-1.91,7.26-4.66L162.2,12.36C164.41,8.2,162.83,3.04,158.67,0.83L158.67,0.83z"/>
	<path style="fill:#7E342D;" d="M367,4.36c-2.26-4.07-7.36-5.57-11.46-3.39c-4.11,2.18-5.71,7.25-3.61,11.4L497,285.43
		c1.4,2.75,4.17,4.54,7.26,4.66s6-1.42,7.62-4.05c1.62-2.63,1.7-5.92,0.2-8.62L367,4.36z"/>
</g>
<path style="fill:#7E342D;" d="M295.81,365.81c4.33-7.2,6.61-15.44,6.6-23.84c0-25.6-20.75-46.35-46.35-46.35
	c-25.6,0-46.35,20.75-46.35,46.35c-0.01,8.4,2.27,16.65,6.6,23.84l-0.17,0.14l0.2-0.08c8.11,13.45,22.87,22.45,39.72,22.45
	c16.86,0,31.61-9,39.72-22.45l0.2,0.08L295.81,365.81z M296.71,341.97c0.01,7.1-1.85,14.07-5.4,20.23l-28.68-23.1l-5.88-37.77
	C278.89,301.71,296.71,319.75,296.71,341.97z M215.4,341.97c0-22.22,17.82-40.26,39.95-40.64l-5.88,37.77l-28.68,23.1
	C217.25,356.04,215.39,349.07,215.4,341.97L215.4,341.97z M256.06,382.63c-14.43,0-27.09-7.52-34.31-18.85l34.31-13.27l34.31,13.27
	C283.15,375.1,270.49,382.63,256.06,382.63z"/>
</svg>
