<?xml version="1.0" encoding="utf-8"?>
<!-- Generator: Adobe Illustrator 23.0.3, SVG Export Plug-In . SVG Version: 6.00 Build 0)  -->
<svg version="1.0" id="Layer_3" xmlns="http://www.w3.org/2000/svg" xmlns:xlink="http://www.w3.org/1999/xlink" x="0px" y="0px"
	 width="512px" height="512px" viewBox="0 0 512 512" style="enable-background:new 0 0 512 512;" xml:space="preserve">
<g>
	<path d="M475,230h-48c-4.42,0-8,3.58-8,8v8H291c-2.12,0-4.16,0.84-5.66,2.34L267,266.69l-18.34-18.34c-1.5-1.5-3.54-2.34-5.66-2.34
		H99v-8c0-4.42-3.58-8-8-8H43c-4.42,0-8,3.58-8,8v144c0,4.42,3.58,8,8,8h48c4.42,0,8-3.58,8-8v-4.69l18.34,18.34
		c1.5,1.5,3.54,2.34,5.66,2.34h17.12c-0.66,2.26-1.12,4.6-1.12,7.03c0,13.47,10.74,24.41,24.09,24.88c0.46,13.06,10.94,23.54,24,24
		c0.46,13.06,10.94,23.54,24,24c0.47,13.35,11.42,24.09,24.88,24.09c6.67,0,12.94-2.6,17.66-7.31l5.38-5.38l5.38,5.38
		c4.71,4.71,10.98,7.31,17.66,7.31c13.47,0,24.41-10.74,24.88-24.09c13.06-0.46,23.54-10.94,24-24c13.06-0.46,23.54-10.94,24-24
		c13.35-0.47,24.09-11.42,24.09-24.88c0-5.52-1.86-10.71-5.15-15.03H395c1.73,0,3.42-0.56,4.8-1.6L419,374v8c0,4.42,3.58,8,8,8h48
		c4.42,0,8-3.58,8-8V238C483,233.58,479.42,230,475,230L475,230z M83,374H51V246h32V374z M99,354.69V262h140.69l48.69,48.69
		c1.69,1.7,2.62,3.94,2.62,6.34c0,4.94-4.02,8.97-8.97,8.97c-2.4,0-4.65-0.94-6.34-2.62l-27.03-27.03c-3.13-3.13-8.18-3.13-11.31,0
		L151.69,382h-25.38L99,354.69z M242.31,483.38c-1.7,1.69-3.94,2.62-6.34,2.62c-4.94,0-8.97-4.02-8.97-8.97
		c0-2.4,0.94-4.65,2.62-6.34l5.38-5.38L247.69,478L242.31,483.38z M282.03,486c-2.4,0-4.65-0.94-6.34-2.62l-30.06-30.06
		c-1.69-1.7-2.62-3.94-2.62-6.34c0-4.94,4.02-8.97,8.97-8.97c2.4,0,4.65,0.94,6.34,2.62l30.06,30.06c1.69,1.7,2.62,3.94,2.62,6.34
		C291,481.98,286.98,486,282.03,486L282.03,486z M306.03,462c-2.4,0-4.65-0.94-6.34-2.62l-30.06-30.06
		c-1.69-1.7-2.62-3.94-2.62-6.34c0-4.94,4.02-8.97,8.97-8.97c2.4,0,4.65,0.94,6.34,2.62l30.06,30.06c1.69,1.7,2.62,3.94,2.62,6.34
		C315,457.98,310.98,462,306.03,462z M330.03,438c-2.4,0-4.65-0.94-6.34-2.62l-30.06-30.06c-1.69-1.7-2.62-3.94-2.62-6.34
		c0-4.94,4.02-8.97,8.97-8.97c2.4,0,4.65,0.94,6.34,2.62l30.06,30.06c1.69,1.7,2.62,3.94,2.62,6.34
		C339,433.98,334.98,438,330.03,438z M354.03,414c-2.4,0-4.65-0.94-6.34-2.62l-30.06-30.06c-1.69-1.7-2.62-3.94-2.62-6.34
		c0-4.94,4.02-8.97,8.97-8.97c2.4,0,4.65,0.94,6.34,2.62l30.06,30.06c1.69,1.7,2.62,3.94,2.62,6.34
		C363,409.98,358.98,414,354.03,414z M392.34,374h-34.02l-16.69-16.69c-4.72-4.71-10.99-7.31-17.66-7.31
		c-13.47,0-24.41,10.74-24.88,24.09c-13.06,0.46-23.54,10.94-24,24c-13.06,0.46-23.54,10.94-24,24
		C237.74,422.56,227,433.5,227,446.97c0,1.15,0.18,2.26,0.33,3.39l-9.02,9.02c-1.7,1.69-3.94,2.62-6.34,2.62
		c-4.94,0-8.97-4.02-8.97-8.97c0-2.4,0.94-4.65,2.62-6.34l30.06-30.06l-11.31-11.31l-30.06,30.06c-1.7,1.69-3.94,2.62-6.34,2.62
		c-4.94,0-8.97-4.02-8.97-8.97c0-2.4,0.94-4.65,2.62-6.34l30.06-30.06l-11.31-11.31l-30.06,30.06c-1.7,1.69-3.94,2.62-6.34,2.62
		c-4.94,0-8.97-4.02-8.97-8.97c0-2.4,0.94-4.65,2.62-6.34L243,313.31l21.38,21.38c4.71,4.71,10.98,7.31,17.66,7.31
		c13.77,0,24.97-11.2,24.97-24.97c0-6.67-2.6-12.94-7.31-17.66L278.31,278l16-16H419v92L392.34,374z M467,374h-32V246h32V374z"/>
	<path d="M226.39,80.71l-4.94,27.9c-0.58,3.29,0.94,6.59,3.82,8.29c2.87,1.69,6.5,1.43,9.1-0.67L259,96.29l24.63,19.93
		c1.46,1.18,3.24,1.78,5.03,1.78c1.4,0,2.81-0.37,4.06-1.11c2.87-1.7,4.4-5,3.82-8.29l-4.94-27.9l21.05-21.06
		c2.04-2.04,2.82-5.02,2.06-7.79s-2.98-4.93-5.77-5.62l-28.43-7.1l-14.35-28.71c-2.71-5.42-11.6-5.42-14.31,0L237.5,39.13
		l-28.44,7.11c-2.8,0.7-5,2.85-5.77,5.62s0.02,5.75,2.06,7.79L226.39,80.71z M244.94,53.76c2.26-0.57,4.17-2.1,5.22-4.18L259,31.89
		l8.84,17.69c1.05,2.09,2.95,3.62,5.22,4.18l18.3,4.58l-14.01,14.01c-1.85,1.85-2.67,4.48-2.22,7.05l1.94,10.92l-13.02-10.54
		C262.57,78.59,260.78,78,259,78s-3.57,0.59-5.03,1.78l-13.02,10.54l1.94-10.92c0.46-2.57-0.38-5.2-2.22-7.05l-14.01-14.01
		L244.94,53.76z"/>
	<path d="M82.39,144.71l-4.94,27.9c-0.58,3.29,0.94,6.59,3.82,8.29c2.86,1.7,6.5,1.43,9.1-0.67L115,160.29l24.63,19.93
		c1.46,1.18,3.24,1.78,5.03,1.78c1.4,0,2.81-0.37,4.06-1.11c2.87-1.7,4.4-5,3.82-8.29l-4.94-27.9l21.05-21.06
		c2.04-2.04,2.82-5.02,2.06-7.79s-2.98-4.93-5.77-5.62l-28.43-7.1l-14.35-28.71c-2.71-5.42-11.6-5.42-14.31,0L93.5,103.13
		l-28.44,7.11c-2.8,0.7-5,2.85-5.77,5.62s0.02,5.75,2.06,7.79L82.39,144.71z M100.94,117.76c2.26-0.57,4.17-2.1,5.22-4.18L115,95.89
		l8.84,17.69c1.05,2.09,2.95,3.62,5.22,4.18l18.3,4.58l-14.01,14.01c-1.85,1.85-2.67,4.48-2.22,7.05l1.94,10.92l-13.02-10.54
		c-1.46-1.18-3.25-1.78-5.03-1.78s-3.57,0.59-5.03,1.78l-13.02,10.54l1.94-10.92c0.46-2.57-0.38-5.2-2.22-7.05l-14.01-14.01
		L100.94,117.76z"/>
	<path d="M370.39,144.71l-4.94,27.9c-0.58,3.29,0.94,6.59,3.82,8.29c2.86,1.7,6.5,1.43,9.1-0.67L403,160.29l24.63,19.93
		c1.46,1.18,3.24,1.78,5.03,1.78c1.4,0,2.81-0.37,4.06-1.11c2.87-1.7,4.4-5,3.82-8.29l-4.94-27.9l21.05-21.06
		c2.04-2.04,2.82-5.02,2.06-7.79s-2.98-4.93-5.77-5.62l-28.43-7.1l-14.35-28.71c-2.71-5.42-11.6-5.42-14.31,0l-14.35,28.71
		l-28.43,7.1c-2.8,0.7-5,2.85-5.77,5.62s0.02,5.75,2.06,7.79L370.39,144.71z M388.94,117.76c2.26-0.57,4.17-2.1,5.22-4.18L403,95.89
		l8.84,17.69c1.05,2.09,2.95,3.62,5.22,4.18l18.3,4.58l-14.01,14.01c-1.85,1.85-2.67,4.48-2.22,7.05l1.94,10.92l-13.02-10.54
		c-1.46-1.18-3.25-1.78-5.03-1.78s-3.57,0.59-5.03,1.78l-13.02,10.54l1.94-10.92c0.46-2.57-0.38-5.2-2.22-7.05l-14.01-14.01
		L388.94,117.76z"/>
</g>
</svg>
