<?xml version="1.0" encoding="utf-8"?>
<!-- Generator: Adobe Illustrator 23.0.3, SVG Export Plug-In . SVG Version: 6.00 Build 0)  -->
<svg version="1.0" id="Capa_1" xmlns="http://www.w3.org/2000/svg" xmlns:xlink="http://www.w3.org/1999/xlink" x="0px" y="0px"
	 width="512px" height="512px" viewBox="0 0 512 512" style="enable-background:new 0 0 512 512;" xml:space="preserve">
<path style="fill:#80332D;" d="M503.28,129.02C437.25,59.58,349.43,21.33,256,21.33S74.75,59.58,8.72,129.02
	c-11.63,12.23-11.63,32.12,0,44.34l49.19,51.73c11.58,12.15,32.05,12.15,43.63,0c16.48-17.32,35.17-31.58,55.51-42.33
	c10.19-5.26,16.77-16.31,16.69-26.75l7.42-56.06c54.42-17.4,95.82-17.39,149.71-0.01l7.33,54.67c0,11.82,6.27,22.62,16.52,28.25
	c20.42,10.8,39.13,25.06,55.61,42.38c5.77,6.09,13.52,9.44,21.82,9.44c8.29,0,16.04-3.34,21.82-9.43l49.32-51.88
	C514.91,161.13,514.91,141.25,503.28,129.02z"/>
<path style="fill:#80332D;" d="M463.06,348.23l-68.27-86C385.5,244.81,367.46,234,347.73,234H164.27
	c-19.73,0-37.77,10.81-47.06,28.23l-68.27,86.01c-4.1,7.71-6.27,16.39-6.27,25.09V448c0,23.53,19.15,42.67,42.67,42.67h341.33
	c23.52,0,42.67-19.14,42.67-42.67v-74.67C469.33,364.63,467.17,355.95,463.06,348.23z"/>
</svg>
