<?xml version="1.0" encoding="utf-8"?>
<!-- Generator: Adobe Illustrator 23.0.3, SVG Export Plug-In . SVG Version: 6.00 Build 0)  -->
<svg version="1.0" id="Capa_1" xmlns="http://www.w3.org/2000/svg" xmlns:xlink="http://www.w3.org/1999/xlink" x="0px" y="0px"
	 width="511.96px" height="511.96px" viewBox="0 0 511.96 511.96" style="enable-background:new 0 0 511.96 511.96;"
	 xml:space="preserve">
<g>
	<g>
		<path style="fill:#CFA482;" d="M507.4,370.47c-1.38-2.3-9.89-20.8-50.85-58.82c-42.88-39.81-37.12-33.34,14.53-102.18
			c31.46-41.92,44.03-67.52,40.1-78.46c-3.74-10.43-26.88-7.68-26.88-7.68l-76.93,0.45c0,0-5.7-0.77-9.95,1.76
			c-4.13,2.5-6.78,8.26-6.78,8.26s-12.19,32.45-28.45,60.03c-34.27,58.21-48,61.28-53.6,57.66c-13.02-8.42-9.76-33.86-9.76-51.9
			c0-56.42,8.54-79.94-16.67-86.02c-8.38-2.02-14.53-3.36-35.94-3.58c-27.46-0.29-50.72,0.1-63.87,6.53
			c-8.77,4.29-15.52,13.86-11.39,14.4c5.09,0.67,16.61,3.1,22.72,11.42c7.9,10.72,7.62,34.85,7.62,34.85s4.54,66.4-10.59,74.66
			c-10.4,5.66-24.64-5.89-55.2-58.72c-15.65-27.04-27.49-56.96-27.49-56.96s-2.27-5.57-6.34-8.54c-4.93-3.62-11.84-4.77-11.84-4.77
			l-73.15,0.45c0,0-10.98,0.32-15.01,5.09c-3.58,4.26-0.29,13.02-0.29,13.02S58.66,275.4,123.49,342.95
			c59.49,61.92,127.01,57.86,127.01,57.86h30.59c0,0,9.25-1.02,13.95-6.11c4.35-4.67,4.19-13.44,4.19-13.44s-0.61-41.06,18.46-47.1
			c18.78-5.95,42.91,39.68,68.48,57.25c19.33,13.28,34.02,10.37,34.02,10.37l68.38-0.96C488.58,400.81,524.36,398.6,507.4,370.47z"
			/>
	</g>
</g>
</svg>
