<?xml version="1.0" encoding="utf-8"?>
<!-- Generator: Adobe Illustrator 23.1.0, SVG Export Plug-In . SVG Version: 6.00 Build 0)  -->
<svg version="1.1" id="Layer_1" xmlns="http://www.w3.org/2000/svg" xmlns:xlink="http://www.w3.org/1999/xlink" x="0px" y="0px"
	 width="191.1px" height="33.9px" viewBox="0 0 191.1 33.9" style="enable-background:new 0 0 191.1 33.9;" xml:space="preserve">
<g>
	<path d="M0.6,33.4v-0.5l2.2-0.4V15.1l-2.2-0.3v-0.5h14.4v5.5h-0.6l-1.8-4.9H5.5v9h4.1l1.4-3.5h0.6v7.6H11l-1.4-3.5H5.5v8.2l2.2,0.4
		v0.5H0.6z"/>
	<path d="M20.3,32.3c-1.1-1-1.6-2.4-1.6-4.2V15.1l-2.2-0.3v-0.5h7.1v0.5l-2.2,0.3v13.1c0,1.6,0.4,2.8,1.3,3.6s2.2,1.3,4,1.3
		c3.4,0,5.1-1.6,5.1-4.9V15.7l-2.2-0.9v-0.5h5.1v0.5l-2.3,0.9v12.5c0,1.9-0.5,3.4-1.6,4.3c-1.1,1-2.8,1.4-5.2,1.4
		C23.1,33.9,21.4,33.4,20.3,32.3z"/>
	<path d="M48.1,33c-0.4-0.4-0.8-1.2-0.9-2.2l-0.5-3.2c-0.2-1.1-0.5-1.9-1.1-2.6c-0.6-0.6-1.5-0.9-2.7-0.9H41v8.4l2.2,0.4v0.5h-7.1
		v-0.5l2.2-0.4V15.1l-2.2-0.3v-0.5h6.7c2.6,0,4.5,0.4,5.7,1.2c1.2,0.8,1.8,2.1,1.8,3.7c0,2.8-1.7,4.3-5,4.8v0.1
		c1.2,0.2,2.2,0.6,3,1.3c0.7,0.7,1.2,1.6,1.4,2.8l0.3,2.1c0.1,0.9,0.3,1.5,0.4,1.8c0.2,0.3,0.4,0.5,0.8,0.5c0.2,0,0.5-0.1,0.8-0.2
		c0.3-0.2,0.5-0.3,0.8-0.6l0.4,0.4c-0.5,0.5-0.9,0.9-1.4,1.1c-0.5,0.2-1,0.3-1.6,0.3C49.2,33.6,48.6,33.4,48.1,33z M43.7,23.5
		c1.2,0,2.1-0.4,2.7-1.1c0.6-0.7,1-1.8,1-3.2v-0.5c0-2.7-1.5-4-4.5-4H41v8.7H43.7z"/>
	<path d="M57.5,33.4v-0.5l2.2-0.4V14.8h-4L54,19.6h-0.7v-5.4h15.6v5.4h-0.7l-1.8-4.8h-4v17.7l2.2,0.4v0.5H57.5z"/>
	<path d="M82.4,33c-0.4-0.4-0.8-1.2-0.9-2.2L81,27.6c-0.2-1.1-0.5-1.9-1.1-2.6c-0.6-0.6-1.5-0.9-2.7-0.9h-1.9v8.4l2.2,0.4v0.5h-7.1
		v-0.5l2.2-0.4V15.1l-2.2-0.3v-0.5h6.7c2.6,0,4.5,0.4,5.7,1.2s1.8,2.1,1.8,3.7c0,2.8-1.7,4.3-5,4.8v0.1c1.2,0.2,2.2,0.6,3,1.3
		c0.7,0.7,1.2,1.6,1.4,2.8l0.3,2.1c0.1,0.9,0.3,1.5,0.4,1.8c0.2,0.3,0.4,0.5,0.8,0.5c0.2,0,0.5-0.1,0.8-0.2c0.3-0.2,0.5-0.3,0.8-0.6
		l0.4,0.4c-0.5,0.5-0.9,0.9-1.4,1.1c-0.5,0.2-1,0.3-1.6,0.3C83.5,33.6,82.8,33.4,82.4,33z M78,23.5c1.2,0,2.1-0.4,2.7-1.1
		c0.6-0.7,1-1.8,1-3.2v-0.5c0-2.7-1.5-4-4.5-4h-1.9v8.7H78z"/>
	<path d="M86.3,33.4v-0.5l2.4-1l6.9-18.2h0.4l6.6,18.8l2.2,0.4v0.5h-7.1v-0.5l2-0.3l-2-5.7h-6.4l-1.9,5l2.2,1v0.5H86.3z M91.4,26.4
		h6l-2.9-8.4L91.4,26.4z"/>
	<path d="M105.2,33.4v-0.5l2.2-1V15.7l-2.2-0.9v-0.5h4.5L120,28.7v-13l-2.2-0.9v-0.5h5.1v0.5l-2.3,0.9v17.7H120l-12-16.8v15.4l2.3,1
		v0.5H105.2z"/>
	<path d="M127.9,32.6l-2,1h-0.5v-6.2h0.5l2.1,4.5c1.3,0.9,2.8,1.4,4.6,1.4c1.4,0,2.6-0.4,3.5-1.1s1.4-1.8,1.4-3.1
		c0-1-0.3-1.7-0.9-2.3s-1.6-1-2.9-1.4l-4-1c-1.4-0.4-2.4-1-3.1-1.9c-0.7-0.9-1.1-1.9-1.1-3.2c0-1.1,0.2-2.1,0.7-2.9s1.1-1.5,1.9-2
		c0.8-0.5,1.9-0.7,3-0.7c1.5,0,2.8,0.2,3.9,0.7l1.8-0.7h0.5v4.9h-0.5l-1.7-3.5c-1.2-0.6-2.5-0.9-3.9-0.9c-1.4,0-2.5,0.4-3.3,1.1
		c-0.8,0.7-1.2,1.7-1.2,2.8c0,0.9,0.3,1.5,0.9,2c0.6,0.5,1.4,0.9,2.5,1.2l4.3,1.1c1.4,0.4,2.4,1,3.1,1.8s1,2.2,1,3.9
		c0,1.8-0.5,3.2-1.6,4.2c-1.1,1-2.6,1.5-4.4,1.5C130.8,33.9,129.3,33.5,127.9,32.6z"/>
	<path d="M140.7,33.4v-0.5l2.2-0.4V15.1l-2.2-0.3v-0.5h14.4v5.5h-0.6l-1.8-4.9h-7.1v9h4.1l1.4-3.5h0.6v7.6H151l-1.4-3.5h-4.1v8.2
		l2.2,0.4v0.5H140.7z"/>
	<path d="M156.8,33.4v-0.5l2.2-0.4V15.1l-2.2-0.3v-0.5h14.4v5.5h-0.6l-1.8-4.9h-7.1v8.6h3.1l1.4-3.5h0.6v7.6h-0.6l-1.4-3.5h-3.1v8.8
		h7.5l2-5.3h0.6v5.9H156.8z"/>
	<path d="M186,33c-0.4-0.4-0.8-1.2-0.9-2.2l-0.5-3.2c-0.2-1.1-0.5-1.9-1.1-2.6c-0.6-0.6-1.5-0.9-2.7-0.9h-1.9v8.4l2.2,0.4v0.5h-7.1
		v-0.5l2.2-0.4V15.1l-2.2-0.3v-0.5h6.7c2.6,0,4.5,0.4,5.7,1.2s1.8,2.1,1.8,3.7c0,2.8-1.7,4.3-5,4.8v0.1c1.2,0.2,2.2,0.6,3,1.3
		c0.7,0.7,1.2,1.6,1.4,2.8l0.3,2.1c0.1,0.9,0.3,1.5,0.4,1.8c0.2,0.3,0.4,0.5,0.8,0.5c0.2,0,0.5-0.1,0.8-0.2c0.3-0.2,0.5-0.3,0.8-0.6
		l0.4,0.4c-0.5,0.5-0.9,0.9-1.4,1.1c-0.5,0.2-1,0.3-1.6,0.3C187.1,33.6,186.5,33.4,186,33z M181.6,23.5c1.2,0,2.1-0.4,2.7-1.1
		c0.6-0.7,1-1.8,1-3.2v-0.5c0-2.7-1.5-4-4.5-4h-1.9v8.7H181.6z"/>
</g>
<g>
	<rect x="6" y="6" width="184" height="1"/>
</g>
<g>
	<rect y="3" width="12" height="1"/>
</g>
<g>
	<rect width="6" height="1"/>
</g>
</svg>
