<?xml version="1.0" encoding="utf-8"?><svg xmlns="http://www.w3.org/2000/svg" xmlns:xlink="http://www.w3.org/1999/xlink"><symbol viewBox="0 0 512 276.52" id="icon-angel-arrow" xmlns="http://www.w3.org/2000/svg"><path d="M241.95 5.83L5.79 242.65c-7.73 7.76-7.72 20.32.04 28.07 7.76 7.74 20.33 7.72 28.07-.04L256 47.96l222.1 222.73c7.74 7.76 20.3 7.78 28.06.04 3.89-3.88 5.84-8.97 5.84-14.06 0-5.07-1.93-10.14-5.8-14.02L270.05 5.83A19.853 19.853 0 00256 0c-5.27 0-10.32 2.1-14.05 5.83z"/></symbol><symbol viewBox="0 0 512 512" id="icon-chear" xmlns="http://www.w3.org/2000/svg"><path d="M428.91 361.58c7.24-14.37 11.09-30.18 11.09-46.42 0-23.94-2.78-47.9-8.26-71.21l-18.14-77.1c-4.27-18.17-20.28-30.85-38.94-30.85h-6.86c-7.31-9.66-18.78-16-31.79-16h-24v-11h11c13.23 0 24-10.77 24-24V25c0-13.23-10.77-24-24-24H187c-13.23 0-24 10.77-24 24v60c0 13.23 10.77 24 24 24h13v11h-24c-13.02 0-24.49 6.34-31.79 16h-6.86c-18.66 0-34.66 12.68-38.94 30.83l-18.14 77.11c-5.48 23.3-8.26 47.26-8.26 71.22 0 16.25 3.85 32.06 11.09 46.42C58.51 367.7 40 390.92 40 418.02v20.69c0 7.02 1.13 13.97 3.35 20.65 8.9 26.7 33.8 44.65 61.94 44.65H406.7c28.15 0 53.04-17.94 61.95-44.66a65.261 65.261 0 003.34-20.64v-20.69c.01-27.1-18.5-50.32-43.08-56.44zM179 85V25c0-4.42 3.58-8 8-8h136c4.42 0 8 3.58 8 8v60c0 4.42-3.58 8-8 8H187c-4.42 0-8-3.58-8-8zm37 24h80v11h-80v-11zM95.84 247.61l18.14-77.11c2.52-10.71 11.86-18.21 22.82-18.46-.52 2.58-.8 5.24-.8 7.96v40h16v-40c0-13.23 10.77-24 24-24h160c13.23 0 24 10.77 24 24v40h16v-40c0-2.72-.28-5.38-.81-7.95 10.96.25 20.3 7.74 22.82 18.46l18.14 77.11c5.2 22.1 7.84 44.83 7.84 67.54 0 15.97-4.38 31.46-12.61 45.06-12.89 1.06-24.96 6.42-34.39 15.58-9.4 9.12-15.14 20.91-16.61 33.71-8.15-4.74-16.78-8.59-25.76-11.44-4.32-28.65-6.62-57.77-6.62-86.74V152h-16v159.34c0 27.58 2.05 55.29 5.87 82.62-7.21-1.26-14.53-1.96-21.87-1.96h-80c-7.34 0-14.66.7-21.87 1.96 3.82-27.34 5.87-55.04 5.87-82.62V152h-16v159.34c0 28.98-2.3 58.1-6.64 86.74-8.98 2.85-17.61 6.7-25.76 11.44-1.46-12.8-7.21-24.6-16.61-33.71-9.44-9.15-21.37-14.45-34.37-15.55C92.38 346.63 88 331.14 88 315.16c0-22.71 2.64-45.44 7.84-67.55zM456 438.7c0 5.3-.85 10.55-2.52 15.58A49.248 49.248 0 01406.7 488H105.3a49.234 49.234 0 01-46.77-33.7A49.247 49.247 0 0156 438.7v-20.69c0-22.51 17.39-41.35 38.77-41.99 10.9-.36 21.26 3.67 29.09 11.26 7.83 7.6 12.14 17.8 12.14 28.71v16c0 22.06 17.94 40 40 40h16v-16h-16c-13.23 0-24-10.77-24-24v-3.81c18.69-13 41.22-20.19 64-20.19h80c22.78 0 45.31 7.19 64 20.19V432c0 13.23-10.77 24-24 24h-16v16h16c22.06 0 40-17.94 40-40v-16c0-10.91 4.31-21.11 12.15-28.71 7.83-7.59 18.23-11.61 29.09-11.26 21.37.64 38.76 19.48 38.76 41.99v20.68zM496 48c-17.65 0-32-14.35-32-32 0-4.42-3.58-8-8-8s-8 3.58-8 8c0 17.65-14.35 32-32 32-4.42 0-8 3.58-8 8s3.58 8 8 8c17.65 0 32 14.35 32 32 0 4.42 3.58 8 8 8s8-3.58 8-8c0-17.65 14.35-32 32-32 4.42 0 8-3.58 8-8s-3.58-8-8-8zm-40 21.5A48.471 48.471 0 00442.5 56c5.34-3.55 9.94-8.15 13.5-13.5 3.55 5.34 8.15 9.94 13.5 13.5A48.207 48.207 0 00456 69.5zM56 176c4.42 0 8-3.58 8-8 0-17.65 14.35-32 32-32 4.42 0 8-3.58 8-8s-3.58-8-8-8c-17.65 0-32-14.35-32-32 0-4.42-3.58-8-8-8s-8 3.58-8 8c0 17.65-14.35 32-32 32-4.42 0-8 3.58-8 8s3.58 8 8 8c17.65 0 32 14.35 32 32 0 4.42 3.58 8 8 8zm0-61.5c3.55 5.34 8.15 9.94 13.5 13.5A48.471 48.471 0 0056 141.5 48.471 48.471 0 0042.5 128c5.35-3.55 9.95-8.15 13.5-13.5z"/></symbol><symbol viewBox="0 0 512 512" id="icon-clock" xmlns="http://www.w3.org/2000/svg"><path d="M508.81 384L408 303.35V352h-72.1c13.08-17.41 22.54-37.26 27.64-58.45l28.46-7.36v-60.42l-28.42-7.19c-3.9-16.22-10.32-31.67-19.16-46.06l15.06-25.26-42.75-42.74-25.26 15.05c-14.38-8.83-29.83-15.26-46.06-19.16L238.22 72h-60.46l-7.19 28.42c-16.22 3.9-31.67 10.32-46.06 19.16l-25.26-15.05-42.75 42.74 15.06 25.26c-8.83 14.38-15.26 29.84-19.16 46.06L24 225.78v60.44l28.43 7.26c5.2 21.66 14.85 41.44 27.75 58.53H8v64h400v48.65L508.81 384zM24 400v-32h70.1c12.94 13.1 28.03 23.95 44.68 32H24zm184 0c-67.96 0-127.26-48.23-141-114.68l-1.02-4.9L40 273.78v-35.56l25.97-6.57 1.02-4.91c3.65-17.66 10.6-34.38 20.66-49.7l2.75-4.18-13.76-23.09 25.14-25.14 23.09 13.77 4.18-2.75c15.31-10.06 32.03-17.02 49.7-20.66l4.91-1.02L190.22 88h35.54l6.57 25.97 4.91 1.02c17.66 3.65 34.38 10.6 49.7 20.66l4.18 2.75 23.09-13.77 25.14 25.14-13.76 23.09 2.75 4.18c10.06 15.31 17.02 32.03 20.66 49.7l1.02 4.91 25.98 6.58v35.58l-26.01 6.73-1.01 4.87c-5.14 24.77-16.82 47.69-33.76 66.59H265.4c32.64-19.59 54.6-55.23 54.6-96 0-61.76-50.24-112-112-112S96 194.24 96 256s50.24 112 112 112h216v-31.35L483.19 384 424 431.35V400H208zm0-48c-52.94 0-96-43.06-96-96s43.06-96 96-96 96 43.06 96 96-43.06 96-96 96z"/><path d="M148.57 232.18l-14.86-5.94c-2.2 5.5-3.78 11.26-4.72 17.1l15.81 2.51c.74-4.66 2.01-9.26 3.77-13.67zm-4.44 27.88l-15.97.98c.37 5.93 1.39 11.81 3.06 17.49l15.35-4.5a64.1 64.1 0 01-2.44-13.97zm-6.05 34.84a80.291 80.291 0 0010.3 14.44l11.92-10.67a63.91 63.91 0 01-8.24-11.56l-13.98 7.79zM232 256c0-10.42-6.71-19.22-16-22.53V176h-16v57.47c-9.29 3.31-16 12.11-16 22.53 0 13.23 10.77 24 24 24 3.7 0 7.15-.9 10.28-2.41l24.06 24.06 11.31-11.31-24.06-24.06c1.51-3.13 2.41-6.58 2.41-10.28zm-24 8c-4.41 0-8-3.59-8-8s3.59-8 8-8 8 3.59 8 8-3.59 8-8 8z"/></symbol><symbol viewBox="0 0 409.81 409.81" id="icon-close" xmlns="http://www.w3.org/2000/svg"><path d="M228.93 205.01L404.6 29.34c6.78-6.55 6.97-17.35.42-24.13-6.55-6.78-17.35-6.97-24.13-.42l-.42.42L204.8 180.88 29.13 5.21C22.35-1.34 11.55-1.15 5 5.63c-6.39 6.61-6.39 17.1 0 23.71l175.67 175.67L5 380.68c-6.66 6.66-6.66 17.47 0 24.13s17.47 6.66 24.13 0L204.8 229.14l175.67 175.67c6.78 6.55 17.58 6.36 24.13-.42 6.39-6.61 6.39-17.1 0-23.71L228.93 205.01z"/></symbol><symbol viewBox="0 0 512 512" id="icon-facebook" xmlns="http://www.w3.org/2000/svg"><path d="M341.27 85.01h46.74V3.61C379.95 2.5 352.21 0 319.91 0c-67.39 0-113.56 42.39-113.56 120.3V192h-74.37v91.01h74.37V512h91.18V283.03h71.36l11.33-91.01h-82.71v-62.7c.03-26.3 7.11-44.31 43.76-44.31z"/></symbol><symbol viewBox="0 0 512 512" id="icon-hends" xmlns="http://www.w3.org/2000/svg"><path d="M475 230h-48c-4.42 0-8 3.58-8 8v8H291c-2.12 0-4.16.84-5.66 2.34L267 266.69l-18.34-18.34a8.008 8.008 0 00-5.66-2.34H99v-8c0-4.42-3.58-8-8-8H43c-4.42 0-8 3.58-8 8v144c0 4.42 3.58 8 8 8h48c4.42 0 8-3.58 8-8v-4.69l18.34 18.34c1.5 1.5 3.54 2.34 5.66 2.34h17.12c-.66 2.26-1.12 4.6-1.12 7.03 0 13.47 10.74 24.41 24.09 24.88.46 13.06 10.94 23.54 24 24 .46 13.06 10.94 23.54 24 24 .47 13.35 11.42 24.09 24.88 24.09 6.67 0 12.94-2.6 17.66-7.31l5.38-5.38 5.38 5.38c4.71 4.71 10.98 7.31 17.66 7.31 13.47 0 24.41-10.74 24.88-24.09 13.06-.46 23.54-10.94 24-24 13.06-.46 23.54-10.94 24-24 13.35-.47 24.09-11.42 24.09-24.88 0-5.52-1.86-10.71-5.15-15.03H395c1.73 0 3.42-.56 4.8-1.6L419 374v8c0 4.42 3.58 8 8 8h48c4.42 0 8-3.58 8-8V238c0-4.42-3.58-8-8-8zM83 374H51V246h32v128zm16-19.31V262h140.69l48.69 48.69a8.919 8.919 0 012.62 6.34c0 4.94-4.02 8.97-8.97 8.97-2.4 0-4.65-.94-6.34-2.62l-27.03-27.03a7.985 7.985 0 00-11.31 0L151.69 382h-25.38L99 354.69zm143.31 128.69a8.919 8.919 0 01-6.34 2.62c-4.94 0-8.97-4.02-8.97-8.97 0-2.4.94-4.65 2.62-6.34l5.38-5.38L247.69 478l-5.38 5.38zm39.72 2.62c-2.4 0-4.65-.94-6.34-2.62l-30.06-30.06a8.919 8.919 0 01-2.62-6.34c0-4.94 4.02-8.97 8.97-8.97 2.4 0 4.65.94 6.34 2.62l30.06 30.06a8.919 8.919 0 012.62 6.34c0 4.95-4.02 8.97-8.97 8.97zm24-24c-2.4 0-4.65-.94-6.34-2.62l-30.06-30.06a8.919 8.919 0 01-2.62-6.34c0-4.94 4.02-8.97 8.97-8.97 2.4 0 4.65.94 6.34 2.62l30.06 30.06a8.919 8.919 0 012.62 6.34c0 4.95-4.02 8.97-8.97 8.97zm24-24c-2.4 0-4.65-.94-6.34-2.62l-30.06-30.06a8.919 8.919 0 01-2.62-6.34c0-4.94 4.02-8.97 8.97-8.97 2.4 0 4.65.94 6.34 2.62l30.06 30.06a8.919 8.919 0 012.62 6.34c0 4.95-4.02 8.97-8.97 8.97zm24-24c-2.4 0-4.65-.94-6.34-2.62l-30.06-30.06a8.919 8.919 0 01-2.62-6.34c0-4.94 4.02-8.97 8.97-8.97 2.4 0 4.65.94 6.34 2.62l30.06 30.06a8.919 8.919 0 012.62 6.34c0 4.95-4.02 8.97-8.97 8.97zm38.31-40h-34.02l-16.69-16.69c-4.72-4.71-10.99-7.31-17.66-7.31-13.47 0-24.41 10.74-24.88 24.09-13.06.46-23.54 10.94-24 24-13.06.46-23.54 10.94-24 24-13.35.47-24.09 11.41-24.09 24.88 0 1.15.18 2.26.33 3.39l-9.02 9.02a8.919 8.919 0 01-6.34 2.62c-4.94 0-8.97-4.02-8.97-8.97 0-2.4.94-4.65 2.62-6.34l30.06-30.06-11.31-11.31-30.06 30.06a8.919 8.919 0 01-6.34 2.62c-4.94 0-8.97-4.02-8.97-8.97 0-2.4.94-4.65 2.62-6.34l30.06-30.06-11.31-11.31-30.06 30.06a8.919 8.919 0 01-6.34 2.62c-4.94 0-8.97-4.02-8.97-8.97 0-2.4.94-4.65 2.62-6.34L243 313.31l21.38 21.38c4.71 4.71 10.98 7.31 17.66 7.31 13.77 0 24.97-11.2 24.97-24.97 0-6.67-2.6-12.94-7.31-17.66L278.31 278l16-16H419v92l-26.66 20zm74.66 0h-32V246h32v128zM226.39 80.71l-4.94 27.9a8.007 8.007 0 0012.92 7.62L259 96.29l24.63 19.93a7.99 7.99 0 009.09.67c2.87-1.7 4.4-5 3.82-8.29l-4.94-27.9 21.05-21.06c2.04-2.04 2.82-5.02 2.06-7.79s-2.98-4.93-5.77-5.62l-28.43-7.1-14.35-28.71c-2.71-5.42-11.6-5.42-14.31 0L237.5 39.13l-28.44 7.11c-2.8.7-5 2.85-5.77 5.62s.02 5.75 2.06 7.79l21.04 21.06zm18.55-26.95c2.26-.57 4.17-2.1 5.22-4.18L259 31.89l8.84 17.69a7.985 7.985 0 005.22 4.18l18.3 4.58-14.01 14.01a8.008 8.008 0 00-2.22 7.05l1.94 10.92-13.02-10.54C262.57 78.59 260.78 78 259 78s-3.57.59-5.03 1.78l-13.02 10.54 1.94-10.92c.46-2.57-.38-5.2-2.22-7.05l-14.01-14.01 18.28-4.58zM82.39 144.71l-4.94 27.9c-.58 3.29.94 6.59 3.82 8.29 2.86 1.7 6.5 1.43 9.1-.67L115 160.29l24.63 19.93a7.99 7.99 0 009.09.67c2.87-1.7 4.4-5 3.82-8.29l-4.94-27.9 21.05-21.06c2.04-2.04 2.82-5.02 2.06-7.79s-2.98-4.93-5.77-5.62l-28.43-7.1-14.35-28.71c-2.71-5.42-11.6-5.42-14.31 0L93.5 103.13l-28.44 7.11c-2.8.7-5 2.85-5.77 5.62s.02 5.75 2.06 7.79l21.04 21.06zm18.55-26.95c2.26-.57 4.17-2.1 5.22-4.18L115 95.89l8.84 17.69a7.985 7.985 0 005.22 4.18l18.3 4.58-14.01 14.01a8.008 8.008 0 00-2.22 7.05l1.94 10.92-13.02-10.54c-1.46-1.18-3.25-1.78-5.03-1.78s-3.57.59-5.03 1.78l-13.02 10.54 1.94-10.92c.46-2.57-.38-5.2-2.22-7.05l-14.01-14.01 18.26-4.58zm269.45 26.95l-4.94 27.9c-.58 3.29.94 6.59 3.82 8.29 2.86 1.7 6.5 1.43 9.1-.67L403 160.29l24.63 19.93a7.99 7.99 0 009.09.67c2.87-1.7 4.4-5 3.82-8.29l-4.94-27.9 21.05-21.06c2.04-2.04 2.82-5.02 2.06-7.79s-2.98-4.93-5.77-5.62l-28.43-7.1-14.35-28.71c-2.71-5.42-11.6-5.42-14.31 0l-14.35 28.71-28.43 7.1c-2.8.7-5 2.85-5.77 5.62s.02 5.75 2.06 7.79l21.03 21.07zm18.55-26.95c2.26-.57 4.17-2.1 5.22-4.18L403 95.89l8.84 17.69a7.985 7.985 0 005.22 4.18l18.3 4.58-14.01 14.01a8.008 8.008 0 00-2.22 7.05l1.94 10.92-13.02-10.54c-1.46-1.18-3.25-1.78-5.03-1.78s-3.57.59-5.03 1.78l-13.02 10.54 1.94-10.92c.46-2.57-.38-5.2-2.22-7.05l-14.01-14.01 18.26-4.58z"/></symbol><symbol viewBox="0 0 169.06 169.06" id="icon-instagram" xmlns="http://www.w3.org/2000/svg"><path d="M122.41 0H46.65C20.93 0 0 20.93 0 46.65v75.76c0 25.72 20.93 46.65 46.65 46.65h75.76c25.72 0 46.65-20.93 46.65-46.65V46.65C169.06 20.93 148.13 0 122.41 0zM84.53 128.09c-24.02 0-43.56-19.54-43.56-43.56 0-24.02 19.54-43.56 43.56-43.56 24.02 0 43.56 19.54 43.56 43.56 0 24.02-19.54 43.56-43.56 43.56zm57.17-85.06a11.108 11.108 0 01-7.78 3.22c-2.89 0-5.73-1.18-7.77-3.22a11.092 11.092 0 01-3.23-7.78c0-2.9 1.18-5.74 3.23-7.78 2.04-2.05 4.88-3.22 7.77-3.22 2.9 0 5.74 1.17 7.78 3.22 2.05 2.04 3.22 4.88 3.22 7.78 0 2.89-1.17 5.73-3.22 7.78z"/></symbol><symbol viewBox="0 0 512 512" id="icon-link" xmlns="http://www.w3.org/2000/svg"><path d="M488.73 0H302.55c-12.85 0-23.27 10.42-23.27 23.27s10.42 23.27 23.27 23.27h130L193 286.09c-9.09 9.09-9.09 23.82 0 32.91 4.54 4.54 10.5 6.82 16.46 6.82 5.96 0 11.91-2.27 16.46-6.82L465.45 79.46v130c0 12.85 10.42 23.27 23.27 23.27S512 222.31 512 209.45V23.27C512 10.42 501.58 0 488.73 0z"/><path d="M395.64 232.73c-12.85 0-23.27 10.42-23.27 23.27v209.46H46.54V139.64H256c12.85 0 23.27-10.42 23.27-23.27S268.85 93.09 256 93.09H23.27C10.42 93.09 0 103.51 0 116.36v372.36C0 501.58 10.42 512 23.27 512h372.36c12.85 0 23.27-10.42 23.27-23.27V256c.01-12.85-10.41-23.27-23.26-23.27z"/></symbol><symbol viewBox="0 0 496 496" id="icon-seal" xmlns="http://www.w3.org/2000/svg"><path d="M136.1 296c-35.29 0-64 28.71-64 64s28.71 64 64 64 64-28.71 64-64-28.71-64-64-64zm0 112c-26.47 0-48-21.53-48-48s21.53-48 48-48 48 21.53 48 48-21.53 48-48 48z"/><path d="M432.41 0c-22.79 0-43.98 12.3-55.29 32.09L368.03 48H100.79L.1 148.69V496h400V155.5l63.91-36.52c19.79-11.32 32.09-32.5 32.09-55.3C496.1 28.57 467.53 0 432.41 0zM96.1 75.31V144H27.41L96.1 75.31zM384.1 480h-368V160h96V64h246.79l-28.35 49.61-40.24 16.09-12.39 24.79-7.18-7.18C258.27 134.86 241.72 128 224.1 128s-34.17 6.86-46.63 19.31L164.79 160l16 16-24 24L296.1 339.31l24-24 16 16 12.69-12.69c12.46-12.46 19.31-29.01 19.31-46.63s-6.86-34.17-19.31-46.63l-7.18-7.18 24.79-12.39 16.09-40.23 1.61-.93V480zm-46.62-243.31c9.43 9.43 14.63 21.98 14.63 35.31s-5.19 25.88-14.63 35.31l-1.38 1.38L187.41 160l1.38-1.38c9.43-9.43 21.98-14.63 35.31-14.63s25.88 5.19 35.31 14.63l78.07 78.07zM308.79 304l-12.69 12.69L179.41 200l12.69-12.69L308.79 304zm147.29-198.91l-86.37 49.35-15.91 39.77-24.13 12.07-39.84-39.84 12.07-24.13 39.77-15.91 49.36-86.37C399.48 25.2 415.35 16 432.41 16c26.3 0 47.69 21.39 47.69 47.69 0 17.06-9.2 32.93-24.02 41.4z"/><path d="M400.1 64h16c0-8.82 7.18-16 16-16 3.95 0 7.73 1.45 10.66 4.07l10.67-11.92A31.901 31.901 0 00432.1 32c-17.65 0-32 14.35-32 32zm-272 37h48v16h-48v-16zm91.5 214.38c1.16-10.68-2.54-21.17-10.14-28.76-7.6-7.59-18.09-11.31-28.74-10.13l-.37.04c-6.39.59-12.69-2.05-16.77-7.13-6.73-8.36-16.75-13.17-27.49-13.17s-20.76 4.81-27.5 13.17c-4.14 5.15-10.54 7.83-17.13 7.09-10.66-1.16-21.17 2.54-28.76 10.14-7.59 7.59-11.28 18.07-10.13 28.74l.04.37c.59 6.45-2.06 12.7-7.13 16.77-8.35 6.73-13.16 16.75-13.16 27.49s4.81 20.76 13.17 27.5c5.15 4.15 7.81 10.54 7.09 17.13-1.16 10.68 2.54 21.17 10.14 28.76 7.6 7.59 18.07 11.28 28.74 10.13l.37-.04c6.41-.61 12.69 2.06 16.77 7.13 6.73 8.37 16.75 13.17 27.5 13.17s20.76-4.81 27.5-13.17c4.14-5.15 10.56-7.82 17.13-7.09 10.66 1.16 21.17-2.54 28.76-10.14 7.59-7.59 11.28-18.07 10.13-28.74l-.04-.37c-.59-6.45 2.06-12.7 7.13-16.77 8.37-6.73 13.17-16.75 13.17-27.5s-4.81-20.76-13.17-27.5c-5.17-4.14-7.82-10.54-7.11-17.12zm2.07 65.89l-5.02-6.23c-9.42 7.57-14.26 19.27-12.96 31.29l.04.38a19.23 19.23 0 01-5.56 15.36c-4.16 4.14-9.89 6.18-15.73 5.54-11.95-1.28-23.71 3.53-31.3 12.96-7.36 9.16-22.7 9.16-30.05 0-6.77-8.41-16.82-13.18-27.45-13.18-1.27 0-2.55.07-3.84.21l-.38.04c-5.75.54-11.3-1.5-15.36-5.56a19.248 19.248 0 01-5.54-15.73c1.31-12.02-3.54-23.72-12.96-31.3-4.58-3.68-7.19-9.16-7.2-15.02 0-5.86 2.63-11.35 7.2-15.03 9.42-7.57 14.26-19.27 12.96-31.29l-.04-.38a19.23 19.23 0 015.56-15.36c4.15-4.15 9.85-6.19 15.73-5.54 11.97 1.31 23.71-3.53 31.3-12.96 7.36-9.16 22.7-9.16 30.05 0 7.58 9.41 19.25 14.31 31.29 12.96l.38-.04c5.76-.52 11.3 1.5 15.36 5.56 4.15 4.16 6.17 9.89 5.54 15.73-1.31 12.02 3.54 23.72 12.96 31.3 4.58 3.68 7.2 9.16 7.2 15.02s-2.63 11.34-7.2 15.02l5.02 6.25zM64.1 208h80v16h-80v-16zm-32 0h16v16h-16v-16zm224 240h112v16h-112v-16zm96-32h16v16h-16v-16zm-96 0h80v16h-80v-16zm0-32h112v16h-112v-16z"/></symbol><symbol viewBox="0 0 511.96 511.96" id="icon-vk" xmlns="http://www.w3.org/2000/svg"><path d="M507.4 370.47c-1.38-2.3-9.89-20.8-50.85-58.82-42.88-39.81-37.12-33.34 14.53-102.18 31.46-41.92 44.03-67.52 40.1-78.46-3.74-10.43-26.88-7.68-26.88-7.68l-76.93.45s-5.7-.77-9.95 1.76c-4.13 2.5-6.78 8.26-6.78 8.26s-12.19 32.45-28.45 60.03c-34.27 58.21-48 61.28-53.6 57.66-13.02-8.42-9.76-33.86-9.76-51.9 0-56.42 8.54-79.94-16.67-86.02-8.38-2.02-14.53-3.36-35.94-3.58-27.46-.29-50.72.1-63.87 6.53-8.77 4.29-15.52 13.86-11.39 14.4 5.09.67 16.61 3.1 22.72 11.42 7.9 10.72 7.62 34.85 7.62 34.85s4.54 66.4-10.59 74.66c-10.4 5.66-24.64-5.89-55.2-58.72-15.65-27.04-27.49-56.96-27.49-56.96s-2.27-5.57-6.34-8.54c-4.93-3.62-11.84-4.77-11.84-4.77l-73.15.45s-10.98.32-15.01 5.09c-3.58 4.26-.29 13.02-.29 13.02s57.27 133.98 122.1 201.53c59.49 61.92 127.01 57.86 127.01 57.86h30.59s9.25-1.02 13.95-6.11c4.35-4.67 4.19-13.44 4.19-13.44s-.61-41.06 18.46-47.1c18.78-5.95 42.91 39.68 68.48 57.25 19.33 13.28 34.02 10.37 34.02 10.37l68.38-.96c.01-.01 35.79-2.22 18.83-30.35z"/></symbol><symbol viewBox="0 0 512 512" id="icon-wheel" xmlns="http://www.w3.org/2000/svg"><path d="M304.08 160.15l-7.78-66.46h19c7.09.03 13.5-4.22 16.23-10.76a17.493 17.493 0 00-3.77-19.1L268.43 4.95c-6.87-6.77-17.91-6.74-24.75.05l-59.3 58.83a17.496 17.496 0 00-3.77 19.1 17.508 17.508 0 0016.23 10.76h19l-7.78 66.46C121.73 184.16 66.4 268.24 78.51 357.03S166.46 512 256.07 512s165.44-66.19 177.55-154.97c12.12-88.79-43.21-172.87-129.54-196.88zm-78.65-83.52l-28.97-.69c60.59-60.22 59.13-59.73 59.99-58.88l58.84 59.57H286.7a8.532 8.532 0 00-8.47 9.52l8.21 70.05a168.02 168.02 0 00-60.74 0l8.21-70.05a8.532 8.532 0 00-8.48-9.52zm30.64 418.13c-89.54 0-162.13-72.59-162.13-162.13S166.52 170.5 256.07 170.5 418.2 243.08 418.2 332.63c-.1 89.5-72.63 162.03-162.13 162.13z"/><path d="M256.07 187.56c-80.07.04-144.95 64.96-144.93 145.02s64.91 144.96 144.98 144.98 144.98-64.87 145.02-144.93c-.22-80.03-65.04-144.85-145.07-145.07zm37.19 224.43a243.505 243.505 0 01-74.39 0c-18.24-34.24-59.62-76.01-90.45-85.56.36-7.76 1.43-15.47 3.19-23.04 12.34-1.43 26.16-5.19 37.09-7.39 31.52-10 57.37-19.33 87.37-20.03 30.01.68 59.9 16.1 89.34 22.02 10.94 2.2 22.82 3.94 35.16 5.37 1.76 7.57 2.83 15.28 3.19 23.04-30.87 9.57-72.23 51.34-90.5 85.59zm-37.19-207.36c52.43.08 99.53 32.1 118.88 80.83-9.11-1.2-17.92-2.56-26.19-4.21-92.37-33.34-96.23-33.59-211.57 4.21 19.35-48.73 66.44-80.75 118.88-80.83zm-127.4 139.95c33.66 14.51 87.72 75.53 84.48 108.47-46.8-16.73-79.73-59-84.48-108.47zm100.99 113.28c1.29-9.33.28-18.83-2.94-27.67 19.49 2.48 39.21 2.48 58.69 0a57.768 57.768 0 00-2.94 27.67 127.35 127.35 0 01-52.81 0zm69.3-4.78c-3.19-32.58 50.23-93.65 84.48-108.47-4.75 49.48-37.67 91.75-84.48 108.47zM157.67.83c-4.16-2.21-9.33-.63-11.54 3.53L1.07 277.43c-1.5 2.7-1.42 6 .2 8.62s4.53 4.17 7.62 4.05 5.86-1.91 7.26-4.66L161.2 12.36c2.21-4.16.63-9.32-3.53-11.53zM366 4.36A8.529 8.529 0 00354.54.97c-4.11 2.18-5.71 7.25-3.61 11.4L496 285.43c1.4 2.75 4.17 4.54 7.26 4.66s6-1.42 7.62-4.05 1.7-5.92.2-8.62L366 4.36z"/><path d="M295.81 365.81c4.33-7.2 6.61-15.44 6.6-23.84 0-25.6-20.75-46.35-46.35-46.35s-46.35 20.75-46.35 46.35c-.01 8.4 2.27 16.65 6.6 23.84l-.17.14.2-.08c8.11 13.45 22.87 22.45 39.72 22.45 16.86 0 31.61-9 39.72-22.45l.2.08-.17-.14zm.9-23.84a40.38 40.38 0 01-5.4 20.23l-28.68-23.1-5.88-37.77c22.14.38 39.96 18.42 39.96 40.64zm-81.31 0c0-22.22 17.82-40.26 39.95-40.64l-5.88 37.77-28.68 23.1a40.473 40.473 0 01-5.39-20.23zm40.66 40.66c-14.43 0-27.09-7.52-34.31-18.85l34.31-13.27 34.31 13.27c-7.22 11.32-19.88 18.85-34.31 18.85z"/></symbol><symbol viewBox="0 0 90.68 90.68" id="icon-youtube" xmlns="http://www.w3.org/2000/svg"><path d="M82.29 45.91c-.94-4.07-4.27-7.07-8.28-7.52-9.49-1.06-19.1-1.06-28.66-1.06-9.57-.01-19.17 0-28.67 1.06-4.01.45-7.33 3.45-8.27 7.52C7.08 51.7 7.07 58.03 7.07 64s0 12.3 1.33 18.09c.94 4.07 4.26 7.07 8.27 7.52 9.49 1.06 19.1 1.07 28.66 1.06 9.57 0 19.17 0 28.66-1.06 4.01-.45 7.34-3.45 8.27-7.52 1.33-5.8 1.34-12.12 1.34-18.09.01-5.97.02-12.3-1.31-18.09zM28.9 50.4h-5.54v29.44h-5.15V50.4h-5.44v-4.82H28.9v4.82zm13.98 29.44h-4.63v-2.79c-1.84 2.11-3.58 3.14-5.29 3.14-1.49 0-2.52-.6-2.98-1.9-.25-.77-.41-1.99-.41-3.8V54.31h4.63v18.8c0 1.08 0 1.65.04 1.8.11.72.46 1.08 1.08 1.08.93 0 1.9-.71 2.92-2.17V54.31h4.63l.01 25.53zm17.57-7.66c0 2.36-.16 4.06-.47 5.14-.62 1.9-1.85 2.87-3.69 2.87-1.65 0-3.23-.91-4.78-2.82v2.47h-4.63V45.58h4.63v11.19C53 54.93 54.59 54 56.29 54c1.84 0 3.08.97 3.69 2.88.31 1.03.47 2.72.47 5.13v10.17zm17.46-4.26h-9.25v4.53c0 2.36.77 3.54 2.36 3.54 1.14 0 1.8-.62 2.07-1.86.04-.25.1-1.28.1-3.13h4.72v.68c0 1.49-.06 2.52-.1 2.98a6.565 6.565 0 01-1.08 2.77c-1.28 1.85-3.18 2.77-5.6 2.77-2.42 0-4.26-.87-5.6-2.61-.98-1.28-1.49-3.29-1.49-6v-8.94c0-2.73.45-4.72 1.43-6.01 1.34-1.75 3.18-2.62 5.54-2.62 2.32 0 4.16.87 5.46 2.62.97 1.29 1.43 3.29 1.43 6.01l.01 5.27z"/><path d="M70.98 58.16c-1.55 0-2.32 1.18-2.32 3.54v2.36h4.63V61.7c-.01-2.36-.78-3.54-2.31-3.54zm-17.17 0c-.76 0-1.53.36-2.31 1.13v15.56c.77.77 1.54 1.14 2.31 1.14 1.33 0 2.01-1.14 2.01-3.44v-10.9c0-2.31-.67-3.49-2.01-3.49zm2.59-23.19c1.71 0 3.48-1.04 5.34-3.17v2.81h4.68V8.82h-4.67v19.72c-1.04 1.46-2.02 2.19-2.95 2.19-.63 0-.99-.37-1.1-1.09-.06-.15-.06-.72-.06-1.82v-19h-4.66v20.4c0 1.82.16 3.05.41 3.84.46 1.3 1.5 1.91 3.01 1.91zM23.85 20.6v14.02h5.18V20.6L35.27 0h-5.24l-3.54 13.6L22.81 0h-5.45c1.09 3.21 2.23 6.43 3.32 9.65 1.66 4.82 2.7 8.46 3.17 10.95zm18.37 14.37c2.34 0 4.16-.88 5.45-2.64.98-1.29 1.45-3.33 1.45-6.07v-9.03c0-2.76-.47-4.77-1.45-6.08-1.29-1.77-3.11-2.65-5.45-2.65-2.33 0-4.15.88-5.44 2.65-.99 1.3-1.46 3.32-1.46 6.08v9.03c0 2.74.47 4.78 1.46 6.07 1.29 1.76 3.11 2.64 5.44 2.64zm-2.23-18.68c0-2.39.72-3.58 2.23-3.58s2.23 1.19 2.23 3.58v10.85c0 2.39-.72 3.58-2.23 3.58s-2.23-1.19-2.23-3.58V16.29z"/></symbol><symbol viewBox="0 0 512 512" id="icon_-_phone" xmlns="http://www.w3.org/2000/svg"><path d="M503.28 129.02C437.25 59.58 349.43 21.33 256 21.33S74.75 59.58 8.72 129.02c-11.63 12.23-11.63 32.12 0 44.34l49.19 51.73c11.58 12.15 32.05 12.15 43.63 0 16.48-17.32 35.17-31.58 55.51-42.33 10.19-5.26 16.77-16.31 16.69-26.75l7.42-56.06c54.42-17.4 95.82-17.39 149.71-.01l7.33 54.67c0 11.82 6.27 22.62 16.52 28.25 20.42 10.8 39.13 25.06 55.61 42.38 5.77 6.09 13.52 9.44 21.82 9.44 8.29 0 16.04-3.34 21.82-9.43l49.32-51.88c11.62-12.24 11.62-32.12-.01-44.35z"/><path d="M463.06 348.23l-68.27-86A53.238 53.238 0 00347.73 234H164.27a53.238 53.238 0 00-47.06 28.23l-68.27 86.01a53.65 53.65 0 00-6.27 25.09V448c0 23.53 19.15 42.67 42.67 42.67h341.33c23.52 0 42.67-19.14 42.67-42.67v-74.67c-.01-8.7-2.17-17.38-6.28-25.1z"/></symbol></svg>