<svg version="1.0" xmlns="http://www.w3.org/2000/svg" width="512" height="512"><path d="M503.28 129.02C437.25 59.58 349.43 21.33 256 21.33S74.75 59.58 8.72 129.02c-11.63 12.23-11.63 32.12 0 44.34l49.19 51.73c11.58 12.15 32.05 12.15 43.63 0 16.48-17.32 35.17-31.58 55.51-42.33 10.19-5.26 16.77-16.31 16.69-26.75l7.42-56.06c54.42-17.4 95.82-17.39 149.71-.01l7.33 54.67c0 11.82 6.27 22.62 16.52 28.25 20.42 10.8 39.13 25.06 55.61 42.38 5.77 6.09 13.52 9.44 21.82 9.44 8.29 0 16.04-3.34 21.82-9.43l49.32-51.88c11.62-12.24 11.62-32.12-.01-44.35z" fill="#7e342d"/><path d="M463.06 348.23l-68.27-86A53.238 53.238 0 00347.73 234H164.27a53.238 53.238 0 00-47.06 28.23l-68.27 86.01a53.65 53.65 0 00-6.27 25.09V448c0 23.53 19.15 42.67 42.67 42.67h341.33c23.52 0 42.67-19.14 42.67-42.67v-74.67c-.01-8.7-2.17-17.38-6.28-25.1z" fill="#7e342d"/></svg>